<?xml version="1.0" standalone="no"?>
<!DOCTYPE svg PUBLIC "-//W3C//DTD SVG 20010904//EN"
 "http://www.w3.org/TR/2001/REC-SVG-20010904/DTD/svg10.dtd">
<svg version="1.0" xmlns="http://www.w3.org/2000/svg"
 width="500.000000pt" height="500.000000pt" viewBox="0 0 500.000000 500.000000"
 preserveAspectRatio="xMidYMid meet">

<g transform="translate(0.000000,500.000000) scale(0.100000,-0.100000)"
fill="#000000" stroke="none">
<path d="M0 2500 l0 -2500 2500 0 2500 0 0 2500 0 2500 -2500 0 -2500 0 0
-2500z m703 786 c83 -250 155 -450 165 -458 9 -9 45 -18 80 -22 l62 -6 0 275
0 275 -35 0 c-28 0 -35 4 -35 20 0 19 7 20 115 20 l115 0 0 -62 0 -62 29 46
c48 76 106 103 185 86 49 -10 106 -63 106 -98 0 -31 17 -32 30 0 16 39 84 100
113 101 92 6 145 -20 179 -89 22 -44 23 -60 26 -279 l4 -233 34 0 c27 0 34 -4
34 -20 0 -19 -7 -20 -150 -20 -143 0 -150 1 -150 20 0 16 7 20 30 20 l30 0 0
256 c0 157 -4 263 -10 275 -7 12 -21 19 -40 19 -35 0 -61 -31 -91 -108 -19
-51 -22 -78 -23 -247 l-1 -190 30 -5 c18 -3 31 -12 33 -23 3 -15 -9 -17 -142
-17 -139 0 -146 1 -146 20 0 16 7 20 30 20 l30 0 0 259 c0 143 -3 266 -6 275
-12 30 -60 19 -93 -21 -55 -67 -64 -108 -69 -320 l-4 -193 31 0 c24 0 31 -4
31 -20 0 -20 -7 -20 -365 -20 l-365 0 0 25 c0 24 3 25 60 25 54 0 60 2 65 23
3 12 -5 54 -18 92 l-24 70 -138 0 -138 0 -18 -50 c-35 -101 -20 -135 62 -135
46 0 49 -2 49 -25 l0 -25 -176 0 -175 0 3 23 c2 18 11 23 48 27 25 3 51 9 57
13 30 19 69 116 199 499 l139 408 30 0 30 0 148 -444z m2377 419 c91 -47 53
-185 -50 -185 -78 0 -124 80 -86 149 27 48 84 63 136 36z m-834 -316 c78 -24
142 -131 151 -254 l6 -75 -162 0 -161 0 0 -58 c0 -163 85 -251 190 -197 34 18
76 84 85 138 5 27 12 37 26 37 24 0 25 -31 4 -91 -22 -62 -58 -103 -109 -128
-128 -60 -289 16 -346 165 -30 77 -33 205 -6 279 27 74 71 131 123 162 71 41
118 46 199 22z m612 -5 c12 -8 22 -10 22 -4 0 6 43 10 115 10 l115 0 0 -295 0
-295 35 0 c28 0 35 -4 35 -20 0 -19 -7 -20 -150 -20 -143 0 -150 1 -150 20 0
16 7 20 35 20 l35 0 0 275 0 275 -29 0 c-28 0 -28 -1 -24 -44 7 -59 -2 -93
-34 -122 -50 -46 -133 -23 -149 42 -5 17 1 36 21 65 28 42 26 61 -3 43 -64
-40 -92 -154 -92 -373 l0 -161 30 0 c23 0 30 -4 30 -20 0 -19 -7 -20 -145 -20
-138 0 -145 1 -145 20 0 16 7 20 35 20 l35 0 0 275 0 275 -35 0 c-28 0 -35 4
-35 20 0 19 7 20 115 20 l115 0 0 -62 1 -63 17 31 c31 55 49 75 87 94 40 21
72 19 113 -6z m709 -10 c100 -57 111 -229 16 -265 -91 -34 -137 55 -68 132 40
44 44 70 15 99 -31 31 -82 30 -118 -3 -40 -38 -57 -116 -57 -277 0 -128 3
-151 22 -192 60 -130 209 -93 246 61 10 43 15 51 34 51 20 0 22 -4 17 -32 -9
-48 -42 -119 -67 -147 -101 -110 -305 -64 -385 86 -74 140 -58 317 37 426 83
94 206 119 308 61z m469 10 c22 -8 54 -29 72 -47 54 -56 62 -96 62 -318 0
-133 4 -200 11 -205 19 -12 39 21 46 74 5 47 8 52 31 52 24 0 24 -1 18 -52 -4
-28 -12 -60 -17 -70 -8 -16 -6 -18 21 -18 l30 0 0 275 0 275 -35 0 c-28 0 -35
4 -35 20 0 19 7 20 120 20 l120 0 0 -52 0 -51 30 41 c37 52 82 76 141 75 78
-1 130 -41 157 -122 8 -22 12 -115 12 -257 l0 -224 35 0 c28 0 35 -4 35 -20 0
-19 -7 -20 -151 -20 -138 0 -150 1 -147 18 2 11 14 18 36 20 l32 3 0 247 c0
264 -5 294 -48 300 -36 5 -68 -22 -98 -85 -28 -57 -29 -62 -32 -260 l-4 -203
31 0 c24 0 31 -4 31 -20 0 -19 -7 -20 -150 -20 -107 0 -150 3 -150 12 0 6 -9
3 -21 -8 -16 -15 -36 -19 -86 -19 -60 0 -67 2 -93 32 -26 28 -30 30 -42 16
-22 -27 -90 -53 -138 -53 -101 0 -170 62 -170 153 0 65 19 106 70 150 39 33
150 84 224 103 l29 7 -7 74 c-3 41 -10 83 -16 93 -14 27 -48 43 -87 42 -75 -3
-99 -45 -52 -93 53 -54 26 -129 -47 -129 -50 0 -84 36 -84 90 0 135 156 211
316 154z m-3580 -799 c27 -8 71 -28 98 -45 55 -36 78 -35 86 0 4 17 14 26 31
28 l26 3 6 -128 c11 -216 11 -223 -17 -223 -20 0 -27 10 -46 63 -66 182 -200
289 -319 257 -60 -16 -81 -41 -81 -95 0 -39 6 -52 40 -89 23 -24 114 -91 202
-148 89 -56 176 -117 193 -134 100 -99 105 -270 11 -381 -15 -18 -53 -45 -84
-60 -48 -24 -69 -28 -137 -28 -82 1 -131 17 -223 76 -39 25 -57 16 -66 -36 -6
-29 -11 -35 -31 -35 l-25 0 -2 195 c-1 107 -2 203 -2 213 -1 11 8 18 25 20 24
3 27 -1 38 -53 28 -123 122 -268 203 -312 43 -23 141 -23 186 1 70 37 94 129
47 184 -14 17 -105 81 -203 144 -184 118 -238 163 -268 226 -22 46 -30 144
-15 198 35 129 184 202 327 159z m1914 -10 c91 -47 53 -185 -50 -185 -78 0
-124 80 -86 149 27 48 84 63 136 36z m-1390 -190 l0 -125 65 0 c63 0 65 -1 65
-25 0 -24 -2 -25 -65 -25 l-65 0 0 -239 c0 -132 4 -251 10 -265 12 -32 58 -36
84 -7 25 27 46 105 46 168 0 38 4 53 14 53 9 0 15 20 19 65 15 162 131 286
267 288 214 2 347 -282 235 -503 -32 -63 -112 -134 -170 -150 -119 -33 -240
32 -300 162 l-22 48 -6 -49 c-13 -108 -75 -171 -169 -171 -60 0 -127 36 -150
80 -16 31 -18 62 -18 277 l0 243 -40 0 c-36 0 -40 3 -40 24 0 19 8 27 38 36
75 25 115 80 127 183 7 57 7 57 41 57 l34 0 0 -125z m1168 -131 c12 -8 22 -10
22 -4 0 6 43 10 115 10 l115 0 0 -295 0 -295 35 0 c28 0 35 -4 35 -20 0 -19
-7 -20 -150 -20 -143 0 -150 1 -150 20 0 16 7 20 35 20 l35 0 0 275 0 275 -29
0 c-28 0 -28 -1 -24 -44 7 -59 -2 -93 -34 -122 -50 -46 -133 -23 -149 42 -5
17 1 36 21 65 28 42 26 61 -3 43 -64 -40 -92 -154 -92 -373 l0 -161 30 0 c23
0 30 -4 30 -20 0 -19 -7 -20 -145 -20 -138 0 -145 1 -145 20 0 16 7 20 35 20
l35 0 0 275 0 275 -35 0 c-28 0 -35 4 -35 20 0 19 7 20 115 20 l115 0 0 -62 1
-63 17 31 c31 55 49 75 87 94 40 21 72 19 113 -6z m685 -6 c74 -37 127 -145
127 -260 l0 -58 -161 0 -162 0 6 -76 c8 -94 35 -157 76 -178 84 -44 166 9 194
123 10 43 15 51 34 51 20 0 22 -4 17 -32 -9 -48 -42 -119 -67 -147 -101 -110
-305 -64 -385 86 -76 143 -58 320 44 432 77 86 179 108 277 59z m455 -5 c54
-26 82 -25 82 2 0 8 9 15 20 15 19 0 20 -7 20 -110 0 -102 -1 -110 -19 -110
-14 0 -29 18 -51 59 -54 100 -127 149 -194 130 -36 -10 -46 -24 -46 -66 0 -47
37 -83 150 -143 120 -65 168 -102 186 -146 19 -45 18 -128 -3 -171 -42 -89
-171 -116 -284 -60 -71 34 -86 34 -107 -3 -34 -60 -42 -39 -42 105 0 122 2
135 18 135 11 0 31 -26 56 -70 22 -39 55 -86 75 -105 82 -82 211 -66 211 26 0
36 -40 69 -152 125 -147 74 -208 144 -208 239 0 87 46 149 127 170 58 15 91
11 161 -22z"/>
<path d="M391 3242 c-30 -86 -56 -163 -59 -169 -3 -10 24 -13 113 -13 89 0
116 3 113 13 -3 6 -29 83 -57 170 -29 86 -53 157 -54 157 -1 0 -26 -71 -56
-158z"/>
<path d="M2116 3338 c-20 -30 -36 -114 -36 -184 l0 -54 81 0 82 0 -7 92 c-8
116 -28 162 -73 166 -24 2 -35 -2 -47 -20z"/>
<path d="M3944 3086 c-65 -30 -84 -67 -84 -165 0 -63 3 -75 25 -96 32 -33 60
-31 96 4 29 29 29 30 29 155 0 69 -3 126 -7 126 -5 0 -31 -11 -59 -24z"/>
<path d="M1384 2222 c-6 -4 -19 -23 -30 -42 -15 -29 -19 -65 -22 -201 -3 -106
0 -186 8 -224 21 -100 83 -135 134 -75 33 40 41 94 41 280 -1 157 -11 216 -43
253 -15 17 -67 23 -88 9z"/>
<path d="M2676 2208 c-17 -26 -36 -131 -36 -195 l0 -43 80 0 80 0 0 59 c0 78
-16 161 -37 183 -23 26 -69 23 -87 -4z"/>
</g>
</svg>
